<svg width="21" height="30" viewBox="0 0 21 30" fill="none" xmlns="http://www.w3.org/2000/svg">
<path d="M20.6026 7.57683C19.6911 3.79644 17.0633 1.55755 13.325 0.337085C12.3652 0.0243584 11.3439 -0.0586662 10.33 0.0381959C6.99401 0.357841 4.26237 1.78586 2.11449 4.19773C1.15906 5.27152 0.537234 6.51412 0.27387 7.9117C0.0265999 9.23179 0.00904316 10.5574 0.00904316 11.8913C0.0119694 27.3561 -0.0509453 13.061 0.118778 28.5244C0.121705 28.8011 0.159746 29.0792 0.134873 29.3532C0.104147 29.6839 0.259239 29.8195 0.581128 29.8306C1.61849 29.868 2.65439 29.8998 3.69029 29.9399C4.04729 29.9538 4.24335 29.8251 4.24189 29.4667C4.24189 29.2411 4.26823 29.0142 4.26969 28.7886C4.28286 27.1046 4.32821 25.4193 4.25652 23.7353C4.23896 23.3077 4.2258 22.8801 4.37357 22.465C4.46575 22.2021 4.62523 22.0139 4.94419 22.0388C5.23243 22.0609 5.329 22.2726 5.39045 22.5037C5.52506 23.0212 5.54262 23.5485 5.53823 24.0771C5.52652 25.7874 5.51189 27.4962 5.50457 29.2065C5.50165 29.987 5.50896 29.9967 6.35465 29.9994C7.31154 30.0022 8.26843 29.9953 9.22532 29.9731C9.7579 29.9607 9.79302 29.9095 9.82521 29.3989C9.83252 29.2992 9.82521 29.1982 9.82521 29.0972C9.85593 26.1554 9.88666 23.2136 9.91885 20.2731C9.92031 20.0462 9.90714 19.8179 10.0052 19.6034C10.0915 19.4166 10.1807 19.227 10.4427 19.2256C10.7031 19.2242 10.8055 19.3931 10.8801 19.5951C10.9957 19.9106 10.9884 20.2372 10.9884 20.5651C10.984 23.3561 10.9811 26.1471 10.9782 28.9381C10.9782 29.1387 10.9855 29.3408 10.9855 29.5414C10.9855 29.8126 11.1054 29.9593 11.4142 29.9565C12.5569 29.9496 13.701 29.9482 14.8438 29.9496C15.113 29.9496 15.23 29.8237 15.2359 29.5829C15.2403 29.4072 15.2432 29.2314 15.2417 29.0557C15.2417 27.2707 15.2359 25.4843 15.2329 23.6993C15.2329 23.2219 15.2344 22.7445 15.3412 22.2726C15.4041 22.0014 15.4349 21.6679 15.8138 21.6735C16.2206 21.6804 16.2849 22.0236 16.3318 22.3266C16.361 22.5259 16.3669 22.7279 16.3698 22.9285C16.3786 23.7588 16.3859 24.589 16.3874 25.4179C16.3888 26.7255 16.3771 28.0331 16.3888 29.3408C16.3932 29.9095 16.4356 29.9385 17.0238 29.9427C17.9822 29.9468 18.9391 29.9399 19.896 29.9427C20.6002 29.9427 20.9528 29.606 20.9538 28.9326L20.9845 26.4514L20.9186 24.6774C20.9186 19.5977 20.9172 24.1679 20.9186 19.0882C20.9186 16.675 20.8864 14.2617 20.9845 11.8485C21.043 10.4149 20.9406 8.98687 20.6011 7.57822L20.6026 7.57683ZM7.0584 12C6 12 6.02926 11.2449 6 11C6 10 6.73371 10.0055 7 10C7.27068 9.99447 8 10 8 11C8.00732 11.2186 8 12 7.0584 12ZM13.3818 12.1221C12.7129 12.1386 12.3818 11.5623 12.3818 11.1221C12.3818 10.1221 13.1551 10.1359 13.3818 10.1221C13.9961 10.1221 14.3818 10.4267 14.3818 11.1221C14.3672 11.3421 14.0507 12.1056 13.3818 12.1221Z" fill="black"/>
</svg>
